<svg width="140" height="140" viewBox="0 0 140 140" fill="currentColor" xmlns="http://www.w3.org/2000/svg">
<path fill-rule="evenodd" clip-rule="evenodd" d="M87.1754 15.7654C76.3432 10.3653 63.6035 10.3669 52.7728 15.7699L51.0787 16.615C45.1674 19.5638 40.2958 24.2448 37.1135 30.0338C32.397 38.6134 31.802 48.8628 35.4939 57.9306L37.9381 63.9342L41.5798 72.7621C44.9388 80.9044 46.6672 89.6268 46.6672 98.4348C46.6672 102.06 49.6064 105 53.2321 105H86.7719C90.3959 105 93.3339 102.062 93.3339 98.4376C93.3339 89.6423 95.0647 80.9329 98.4277 72.8059L102.113 63.8991L104.535 57.9414C108.238 48.8319 107.614 38.5352 102.839 29.9391C99.6542 24.2053 94.8077 19.5703 88.9377 16.6439L87.1754 15.7654ZM57.9806 26.2097C65.5331 22.4421 74.4167 22.4409 81.9702 26.2065L83.7325 27.0851C87.494 28.9603 90.5996 31.9303 92.6406 35.6045C95.7005 41.1128 96.1 47.7109 93.7272 53.5482L91.3262 59.4551L87.6475 68.3451C84.3512 76.3109 82.3906 84.7532 81.8329 93.333H58.1689C57.613 84.7436 55.656 76.291 52.3649 68.313L48.7436 59.5349L46.2993 53.5313C43.9334 47.7203 44.3147 41.1521 47.3372 35.654C49.3765 31.9442 52.4984 28.9445 56.2866 27.0547L57.9806 26.2097Z" fill="currentColor"/>
<path d="M52.5015 116.667C49.2798 116.667 46.6681 119.278 46.6681 122.5C46.668 125.722 49.2797 128.333 52.5013 128.333L87.5013 128.334C90.723 128.334 93.3347 125.722 93.3347 122.5C93.3348 119.279 90.7231 116.667 87.5015 116.667L52.5015 116.667Z" fill="currentColor"/>
</svg>
