<svg width="140" height="140" viewBox="0 0 140 140" fill="currentColor" xmlns="http://www.w3.org/2000/svg">
<path fill-rule="evenodd" clip-rule="evenodd" d="M73.5754 10.2899C76.0959 3.83979 84.9632 3.17098 88.4265 9.16765L130.046 81.2526C133.506 87.2501 128.489 94.5886 121.643 93.5459C101.431 90.468 80.7906 91.7852 61.134 97.4082L58.9066 98.0405L70.4878 118.098C72.9028 122.283 71.4698 127.633 67.2863 130.05L57.1805 135.883C52.9959 138.299 47.6456 136.866 45.229 132.682L33.4142 112.219C26.9746 114.377 19.6927 111.788 16.1649 105.68L10.3316 95.5739C6.30482 88.5992 8.69519 79.6802 15.6693 75.6528L37.7892 62.881L39.9767 60.7619C54.6748 46.55 66.1351 29.3333 73.5754 10.2899ZM43.6625 106.642L53.8708 124.319L58.9237 121.402L48.7154 103.726L43.6625 106.642ZM21.5026 85.7586C20.1093 86.5647 19.6324 88.3463 20.4374 89.7406L26.2707 99.8464C27.0766 101.239 28.8586 101.716 30.2526 100.912L47.9349 90.7033L39.1849 75.5503L21.5026 85.7586ZM81.7557 20.9483C73.8464 38.7712 62.6225 54.949 48.647 68.6004L58.6844 85.9865C77.4945 80.7092 97.1155 79.0712 116.505 81.133L81.7557 20.9483Z" fill="currentColor"/>
</svg>
