<svg width="126" height="126" viewBox="0 0 126 126" fill="currentColor" xmlns="http://www.w3.org/2000/svg">
<path d="M91.5747 50.4083C87.0186 54.9644 79.6317 54.9644 75.0755 50.4083C70.5194 45.8522 70.5194 38.4652 75.0755 33.9091C79.6317 29.353 87.0186 29.353 91.5747 33.9091C96.1308 38.4652 96.1308 45.8522 91.5747 50.4083Z" fill="currentColor"/>
<path fill-rule="evenodd" clip-rule="evenodd" d="M74.4511 9.78606L54.1664 30.0708C43.1951 22.305 27.9046 23.3349 18.079 33.1605L2.32983 48.9097C-0.776615 52.0161 -0.776607 57.0527 2.32983 60.1591L15.2667 73.096C18.6838 76.513 24.2239 76.513 27.641 73.096L33.828 66.909L58.5752 91.6562L52.389 97.8425C48.9719 101.26 48.9719 106.8 52.389 110.217L65.3258 123.154C68.4322 126.26 73.4688 126.26 76.5752 123.154L92.3244 107.404C102.15 97.5792 103.18 82.2893 95.4149 71.3181L115.699 51.034C116.92 49.8125 117.753 48.2567 118.092 46.5628L125.31 10.4709C126.535 4.34833 121.137 -1.04973 115.014 0.174784L78.9223 7.39317C77.2283 7.73195 75.6726 8.56456 74.4511 9.78606ZM113.012 12.4729L82.0762 18.6601L57.8847 42.8516L57.827 42.91L42.0776 58.6594L66.8248 83.4066L82.5749 67.6565L82.6848 67.549L106.825 43.4088L113.012 12.4729ZM26.3286 41.4101C31.5748 36.1639 39.4845 35.2047 45.7047 38.5325L31.7652 52.4719L31.7002 52.5376L21.4539 62.784L13.2043 54.5344L26.3286 41.4101ZM62.7009 104.03L72.8895 93.8411L73.0131 93.7198L86.953 79.7799C90.2801 85.9999 89.3207 93.909 84.0748 99.1549L70.9505 112.279L62.7009 104.03Z" fill="currentColor"/>
</svg>
